<svg xmlns="http://www.w3.org/2000/svg" viewBox="0 6 142 86" width="142" height="86"><defs><linearGradient id="g" x1="0" y1="0" x2="1" y2="1"><stop offset="0" stop-color="#d84a67"/><stop offset=".55" stop-color="#e3627f"/><stop offset="1" stop-color="#e87b73"/></linearGradient><linearGradient id="lt" x1="0" y1="0" x2="1" y2="1"><stop offset="0" stop-color="#f08aa0"/><stop offset="1" stop-color="#f4a39a"/></linearGradient><linearGradient id="dk" x1="0" y1="0" x2="1" y2="1"><stop offset="0" stop-color="#b8344f"/><stop offset="1" stop-color="#d0545a"/></linearGradient><radialGradient id="shine" cx=".35" cy=".3" r=".7"><stop offset="0" stop-color="#fff" stop-opacity=".55"/><stop offset=".5" stop-color="#fff" stop-opacity="0"/></radialGradient></defs><g fill="none" stroke="#151112" stroke-width="13" stroke-linecap="round" stroke-linejoin="round"><path d="M6,31 L17,21 V80"/><path d="M37,80 V57 a16 16 0 0 1 32 0 V80"/><path d="M119,36 V63 a17 17 0 0 1 -17 17 h-7"/></g><polygon points="105.00,18.00 110.88,29.91 124.02,31.82 114.51,41.09 116.76,54.18 105.00,48.00 93.24,54.18 95.49,41.09 85.98,31.82 99.12,29.91" fill="url(#g)" stroke="url(#g)" stroke-width="5" stroke-linejoin="round"/><polygon points="105.00,18.00 110.88,29.91 124.02,31.82 114.51,41.09 116.76,54.18 105.00,48.00 93.24,54.18 95.49,41.09 85.98,31.82 99.12,29.91" fill="url(#shine)"/><polygon points="105.00,28.20 108.06,34.39 114.89,35.39 109.95,40.21 111.11,47.01 105.00,43.80 98.89,47.01 100.05,40.21 95.11,35.39 101.94,34.39" fill="none" stroke="#fff" stroke-opacity=".75" stroke-width="1.6" stroke-linejoin="round"/></svg>
